<svg width="45" height="45" viewBox="0 0 45 45" fill="none" xmlns="http://www.w3.org/2000/svg">
<path d="M22.7654 0.00105082C20.354 -0.0220244 18.0465 0.335636 15.8543 1.00482L15.6697 16.1883H15.7851C17.5388 13.2231 20.6655 11.3194 24.9806 11.3656C31.6262 11.4464 36.2644 17.0421 36.1144 25.1761C35.999 34.7523 29.9071 39.4481 23.9307 39.3789C20.054 39.3327 16.9735 37.7982 15.0236 34.2331H14.8621L14.5852 38.6636L10.374 38.6174C10.5009 36.7945 10.6509 34.0831 10.674 31.6948L11.0085 3.18543C4.50134 7.06207 0.0939733 14.1115 0.00167253 22.234C-0.148316 34.66 9.80864 44.8477 22.2346 44.9977C34.6606 45.1477 44.8483 35.1907 44.9983 22.7647C45.1483 10.3387 35.1914 0.15104 22.7654 0.00105082Z" fill="#FE8C12"/>
</svg>
