<svg width="103" height="25" viewBox="0 0 103 25" fill="none" xmlns="http://www.w3.org/2000/svg">
<path d="M6.70508 1.20703V6.36328C6.70508 6.94922 6.68555 7.51074 6.64648 8.04785C6.60742 8.5752 6.55859 9.07324 6.5 9.54199H6.70508C7.13477 8.86816 7.69629 8.29688 8.38965 7.82812C9.08301 7.34961 9.99121 7.11035 11.1143 7.11035C12.8428 7.11035 14.2539 7.84277 15.3477 9.30762C16.4512 10.7725 17.0029 12.8916 17.0029 15.665C17.0029 17.5498 16.749 19.1367 16.2412 20.4258C15.7334 21.7051 15.0205 22.6719 14.1025 23.3262C13.1943 23.9707 12.1396 24.293 10.9385 24.293C9.7666 24.293 8.87305 24.0928 8.25781 23.6924C7.65234 23.2822 7.13477 22.8428 6.70508 22.374H6.35352L5.44531 24H0.977539V1.20703H6.70508ZM9.01953 11.6074C8.49219 11.6074 8.05762 11.7295 7.71582 11.9736C7.37402 12.2178 7.12012 12.5986 6.9541 13.1162C6.78809 13.624 6.70508 14.2734 6.70508 15.0645V15.8701C6.70508 17.1592 6.87598 18.1162 7.21777 18.7412C7.56934 19.3662 8.18945 19.6787 9.07812 19.6787C9.75195 19.6787 10.2695 19.332 10.6309 18.6387C10.9922 17.9453 11.1729 16.9346 11.1729 15.6064C11.1729 14.2783 10.9971 13.2822 10.6455 12.6182C10.2939 11.9443 9.75195 11.6074 9.01953 11.6074ZM26.041 7.40332V24H20.3135V7.40332H26.041ZM23.1992 0.723633C24.0195 0.723633 24.7324 0.894531 25.3379 1.23633C25.9531 1.57812 26.2607 2.25684 26.2607 3.27246C26.2607 4.25879 25.9531 4.92773 25.3379 5.2793C24.7324 5.62109 24.0195 5.79199 23.1992 5.79199C22.3594 5.79199 21.6416 5.62109 21.0459 5.2793C20.46 4.92773 20.167 4.25879 20.167 3.27246C20.167 2.25684 20.46 1.57812 21.0459 1.23633C21.6416 0.894531 22.3594 0.723633 23.1992 0.723633ZM45.8896 15.665C45.8896 17.0518 45.6992 18.2822 45.3184 19.3564C44.9375 20.4307 44.3857 21.334 43.6631 22.0664C42.9404 22.7988 42.0664 23.3555 41.041 23.7363C40.0156 24.1074 38.8584 24.293 37.5693 24.293C36.3682 24.293 35.2646 24.1074 34.2588 23.7363C33.2627 23.3555 32.3936 22.7988 31.6514 22.0664C30.9092 21.334 30.333 20.4307 29.9229 19.3564C29.5225 18.2822 29.3223 17.0518 29.3223 15.665C29.3223 13.8291 29.6543 12.2764 30.3184 11.0068C30.9922 9.7373 31.9492 8.77051 33.1895 8.10645C34.4395 7.44238 35.9287 7.11035 37.6572 7.11035C39.249 7.11035 40.665 7.44238 41.9053 8.10645C43.1455 8.77051 44.1172 9.7373 44.8203 11.0068C45.5332 12.2764 45.8896 13.8291 45.8896 15.665ZM35.1377 15.665C35.1377 16.6123 35.2207 17.4131 35.3867 18.0674C35.5527 18.7119 35.8164 19.2051 36.1777 19.5469C36.5488 19.8789 37.0322 20.0449 37.6279 20.0449C38.2236 20.0449 38.6973 19.8789 39.0488 19.5469C39.4004 19.2051 39.6543 18.7119 39.8105 18.0674C39.9766 17.4131 40.0596 16.6123 40.0596 15.665C40.0596 14.7178 39.9766 13.9268 39.8105 13.292C39.6543 12.6572 39.3955 12.1787 39.0342 11.8564C38.6826 11.5342 38.2041 11.373 37.5986 11.373C36.7295 11.373 36.0996 11.7344 35.709 12.457C35.3281 13.1797 35.1377 14.249 35.1377 15.665ZM53.5215 24L47.1934 7.40332H53.1699L55.9824 17.2178C56.0117 17.3057 56.0605 17.5303 56.1289 17.8916C56.207 18.2529 56.2461 18.5898 56.2461 18.9023H56.3486C56.3486 18.5703 56.3828 18.2529 56.4512 17.9502C56.5195 17.6475 56.5732 17.4131 56.6123 17.2471L59.5566 7.40332H65.5186L59.1904 24H53.5215ZM74.9814 7.11035C76.5928 7.11035 77.9844 7.39355 79.1562 7.95996C80.3281 8.5166 81.2314 9.35645 81.8662 10.4795C82.501 11.6025 82.8184 13.0088 82.8184 14.6982V17.2471H72.5791C72.6279 18.1162 72.9502 18.8291 73.5459 19.3857C74.1514 19.9424 75.04 20.2207 76.2119 20.2207C77.2471 20.2207 78.1943 20.1182 79.0537 19.9131C79.9229 19.708 80.8164 19.3906 81.7344 18.9609V23.0771C80.9336 23.4971 80.0596 23.8047 79.1123 24C78.165 24.1953 76.9688 24.293 75.5234 24.293C73.8535 24.293 72.3594 23.9951 71.041 23.3994C69.7227 22.8037 68.6826 21.8809 67.9209 20.6309C67.1689 19.3809 66.793 17.7744 66.793 15.8115C66.793 13.8193 67.1348 12.1836 67.8184 10.9043C68.502 9.61523 69.459 8.66309 70.6895 8.04785C71.9199 7.42285 73.3506 7.11035 74.9814 7.11035ZM75.1865 11.0068C74.5127 11.0068 73.9463 11.2217 73.4873 11.6514C73.0381 12.0713 72.7744 12.7354 72.6963 13.6436H77.6182C77.6084 13.1553 77.5107 12.7109 77.3252 12.3105C77.1396 11.9102 76.8662 11.5928 76.5049 11.3584C76.1533 11.124 75.7139 11.0068 75.1865 11.0068ZM96.4414 7.11035C98.1504 7.11035 99.5469 7.59375 100.631 8.56055C101.715 9.52734 102.257 11.0752 102.257 13.2041V24H96.5293V14.9473C96.5293 13.8438 96.3682 13.0137 96.0459 12.457C95.7334 11.8906 95.2256 11.6074 94.5225 11.6074C93.4385 11.6074 92.7109 12.0518 92.3398 12.9404C91.9688 13.8193 91.7832 15.084 91.7832 16.7344V24H86.0557V7.40332H90.377L91.1533 9.60059H91.373C91.7246 9.07324 92.1445 8.62402 92.6328 8.25293C93.1211 7.88184 93.6826 7.59863 94.3174 7.40332C94.9521 7.20801 95.6602 7.11035 96.4414 7.11035Z" fill="#0A0A0B"/>
</svg>
